<?xml version="1.0" standalone="no"?>
<!DOCTYPE svg PUBLIC "-//W3C//DTD SVG 20010904//EN"
 "http://www.w3.org/TR/2001/REC-SVG-20010904/DTD/svg10.dtd">
<svg version="1.0" xmlns="http://www.w3.org/2000/svg"
 width="500.000000pt" height="500.000000pt" viewBox="0 0 500.000000 500.000000"
 preserveAspectRatio="xMidYMid meet">
<metadata>
Created by potrace 1.14, written by Peter Selinger 2001-2017
</metadata>
<g transform="translate(0.000000,500.000000) scale(0.100000,-0.100000)"
fill="#000000" stroke="none">
<path d="M2500 4970 c0 -7 42 -54 94 -104 390 -377 616 -600 616 -608 0 -10
-41 -4 -67 10 -10 6 -88 82 -174 169 -86 87 -230 229 -319 316 l-162 158 -105
-108 c-58 -59 -203 -207 -323 -328 l-218 -221 -518 2 c-286 1 -526 0 -534 -2
-13 -3 -15 -72 -15 -543 l0 -538 -75 -78 c-41 -43 -193 -197 -337 -343 l-262
-265 232 -227 c128 -125 279 -273 337 -329 l105 -102 1 -487 0 -487 453 -2
454 -2 191 -190 c444 -441 619 -611 629 -611 9 0 -40 60 -65 80 -3 3 -168 165
-367 360 -209 205 -356 357 -350 361 30 18 43 7 646 -588 108 -106 196 -193
198 -193 1 0 42 41 91 91 583 597 675 689 692 689 9 0 211 1 447 3 l430 2 1
430 c1 237 2 441 3 455 1 24 82 110 612 647 l111 112 -84 80 c-45 43 -209 203
-363 355 l-279 276 0 520 c0 286 -2 521 -5 521 -3 1 -225 2 -493 3 l-488 2
-48 49 c-27 28 -176 174 -331 325 -156 151 -301 292 -322 314 -22 21 -39 33
-39 26z"/>
</g>
</svg>
